<?xml version="1.0" standalone="no"?>
<!DOCTYPE svg PUBLIC "-//W3C//DTD SVG 20010904//EN"
 "http://www.w3.org/TR/2001/REC-SVG-20010904/DTD/svg10.dtd">
<svg version="1.0" xmlns="http://www.w3.org/2000/svg"
 width="512.000000pt" height="512.000000pt" viewBox="0 0 512.000000 512.000000"
 preserveAspectRatio="xMidYMid meet">

<g transform="translate(0.000000,512.000000) scale(0.100000,-0.100000)"
fill="#000000" stroke="none">
<path d="M2346 4734 c-9 -8 -16 -23 -16 -32 0 -10 63 -80 140 -157 77 -77 140
-142 140 -146 0 -3 -62 -9 -137 -12 -663 -29 -1254 -415 -1551 -1013 -96 -191
-169 -427 -142 -458 15 -19 54 -21 68 -3 5 6 22 57 36 111 103 389 367 751
719 986 255 170 576 274 889 287 81 4 138 2 138 -3 0 -5 -67 -77 -150 -159
-82 -82 -150 -157 -150 -166 0 -24 36 -52 57 -45 30 10 403 390 403 411 0 24
-389 415 -412 415 -9 0 -24 -7 -32 -16z"/>
<path d="M2913 4339 c-7 -7 -13 -23 -13 -35 0 -31 14 -39 110 -64 394 -101
762 -367 1000 -723 118 -177 211 -405 255 -624 27 -128 46 -403 29 -403 -5 0
-74 65 -154 145 -143 143 -170 161 -198 133 -29 -29 -10 -55 181 -246 146
-146 198 -192 217 -192 19 0 71 46 217 192 191 191 210 217 181 246 -28 28
-55 10 -193 -128 -77 -77 -143 -140 -147 -140 -5 0 -8 40 -8 89 0 186 -51 453
-120 626 -207 520 -615 910 -1135 1083 -142 47 -205 59 -222 41z"/>
<path d="M562 2587 c-190 -190 -209 -216 -180 -245 28 -28 55 -10 193 128 77
77 142 140 146 140 3 0 9 -60 12 -132 18 -394 161 -772 407 -1073 85 -103 253
-261 360 -337 171 -121 404 -230 596 -279 100 -25 124 -20 124 26 0 31 -14 40
-90 60 -738 191 -1270 846 -1307 1609 -3 81 -2 136 3 136 5 0 74 -65 154 -145
143 -143 170 -161 198 -133 29 29 10 55 -181 246 -147 147 -198 192 -217 192
-19 0 -70 -45 -218 -193z"/>
<path d="M4277 2198 c-10 -7 -28 -53 -41 -103 -173 -648 -710 -1130 -1391
-1251 -100 -18 -345 -30 -345 -18 0 5 65 74 145 154 80 80 145 152 145 161 0
24 -36 52 -57 45 -30 -10 -403 -390 -403 -411 0 -18 355 -386 393 -406 26 -15
56 -1 63 28 6 22 -11 42 -147 179 l-154 154 100 0 c393 1 819 156 1130 410
103 85 261 253 337 360 113 159 220 382 268 555 12 44 24 88 26 97 5 16 -27
58 -44 58 -5 0 -16 -6 -25 -12z"/>
</g>
</svg>
